<svg id="Capa_1" enable-background="new 0 0 506.289 506.289" height="512" viewBox="0 0 506.289 506.289" width="512" xmlns="http://www.w3.org/2000/svg"><g><path d="m255.929 230.732c-6.893 0-12.5 5.608-12.5 12.501v52.966c0 6.893 5.608 12.5 12.5 12.5h76.094c6.893 0 12.5-5.608 12.5-12.5v-52.966c0-6.893-5.608-12.501-12.5-12.501zm73.595 62.967h-71.095v-47.968h71.095z"/><path d="m76.769 263.543c-4.142 0-7.5 3.358-7.5 7.5v14.785c0 4.142 3.358 7.5 7.5 7.5s7.5-3.358 7.5-7.5v-14.785c0-4.142-3.358-7.5-7.5-7.5z"/><path d="m155.148 293.328c4.142 0 7.5-3.358 7.5-7.5v-14.785c0-4.142-3.358-7.5-7.5-7.5s-7.5 3.358-7.5 7.5v14.785c0 4.142 3.358 7.5 7.5 7.5z"/><path d="m479.311 98.957c4.142 0 7.5-3.358 7.5-7.5v-30.241h3.977c8.547 0 15.501-6.954 15.501-15.501v-22.67c0-8.547-6.954-15.501-15.501-15.501h-362.326c-8.547 0-15.501 6.954-15.501 15.501v22.669c0 8.547 6.954 15.501 15.501 15.501h3.978v67.182h-56.161c-37.357 0-67.749 30.392-67.749 67.749v49.225c0 1.528.459 2.948 1.244 4.133-5.451 6.14-8.743 14.229-8.743 23.102 0 17.441 12.912 31.924 29.679 34.392 4.298 17.923 14.227 34.179 28.369 46.266 4.832 4.13 10.075 7.687 15.614 10.647v10.024l-22.026 11.967h-9.128c-24.008 0-43.539 19.531-43.539 43.539v61.804c0 4.142 3.358 7.5 7.5 7.5h26.562c4.142 0 7.5-3.358 7.5-7.5s-3.358-7.5-7.5-7.5h-19.062v-54.304c0-15.736 12.802-28.539 28.539-28.539h8.546l37.679 28.083c1.296.966 2.91 1.483 4.465 1.486.005 0 .01.001.015.001.026 0 .053-.004.079-.004l3.08 12.07-8.095 41.206h-20.246c-4.142 0-7.5 3.358-7.5 7.5s3.358 7.5 7.5 7.5h151.767c4.142 0 7.5-3.358 7.5-7.5v-61.804c0-24.007-19.531-43.539-43.538-43.539h-6.04l-18.452-10.025h144.37v20.802c-10.971 3.244-19.002 13.406-19.002 25.415 0 14.613 11.889 26.502 26.502 26.502s26.502-11.889 26.502-26.502c0-12.009-8.031-22.171-19.002-25.415v-20.802h171.119c8.547 0 15.501-6.954 15.501-15.501v-22.669c0-8.547-6.954-15.501-15.501-15.501h-3.977v-195.748c0-4.142-3.358-7.5-7.5-7.5s-7.5 3.358-7.5 7.5v195.749h-275.51c1.932-4.327 3.906-9.962 5.158-15.208 16.113-2.373 28.792-15.902 29.628-32.636.481-9.614-3.019-18.905-9.46-25.697.46-.939.76-2.139.76-3.294v-39.554h77.409c6.893 0 12.5-5.608 12.5-12.501v-99.976c0-6.893-5.608-12.5-12.5-12.5h-125.358c-6.893 0-12.5 5.608-12.5 12.5v40.363c-4.391-2.468-9.354-4.177-14.497-4.898v-67.589h324.371v30.242c-.001 4.141 3.357 7.499 7.499 7.499zm-155.64 323.137c0 6.342-5.16 11.502-11.502 11.502s-11.502-5.16-11.502-11.502 5.16-11.502 11.502-11.502 11.502 5.159 11.502 11.502zm-300.141-225.948c0-29.086 23.663-52.749 52.749-52.749h65.308c8.722 0 16.726 4.204 21.695 11.308 1 1.429 2.583 4.662 7.057 4.725 19.068.268 37.049 15.316 37.049 38.888v39.554c-12.937 0-10.173 0-22.9 0-7.115 0-13.745-3.203-18.189-8.787-2.776-3.486-7.781-3.687-10.875-.914-6.99 6.266-15.998 9.7-25.354 9.7h-95.382-11.158zm20.771 102.458c-.629-3.76-3.962-6.415-7.705-6.257-.267.011-.533.022-.802.022-10.897 0-19.763-8.866-19.763-19.763 0-10.599 8.255-19.241 18.819-19.735h95.219c10.647 0 20.955-3.188 29.672-9.085 6.851 5.839 15.551 9.085 24.747 9.085h12.755c10.756.466 18.891 9.368 18.891 19.735 0 11.133-9.271 20.197-20.564 19.741-3.762-.158-7.081 2.527-7.706 6.256-4.074 24.364-20.281 44.636-42.192 54.403-42.597 18.986-93.376-6.589-101.371-54.402zm62.904 121.681c5.604-5.851 5.259-5.491 8.504-8.88l8.899 9.292-3.605 14.126h-10.089zm31.091-7.504-10.925-11.406 21.749-14.5 13.842 7.52zm-22.214-38.49c8.369 0 17.027-1.23 25.143-3.664v3.483l-25.516 17.011-26.016-17.344v-3.529c8.437 2.669 17.527 4.043 26.389 4.043zm-34.06 12.733 22.135 14.756-10.666 11.136c-.001.001-.002.003-.003.004l-.074.078-24.958-18.603zm22.572 96.721 6.664-33.921h9.399l6.664 33.921zm108.735-54.304v54.304h-70.722l-8.093-41.199 3.086-12.093c1.498-.085 2.922-.624 4.054-1.468l37.679-28.083h5.458c15.736 0 28.538 12.802 28.538 28.539zm265.982-92.235h11.477c.276 0 .501.225.501.501v22.669c0 .276-.225.501-.501.501h-328.067c9.43-5.914 18.192-14.028 25.018-23.671zm-302.374-241.366h120.36v94.978h-75.275c-2.83-23.744-21.795-42.753-45.084-45.905v-49.073zm-48.475-49.624c-.276 0-.501-.225-.501-.501v-22.67c0-.276.225-.501.501-.501h362.326c.276 0 .501.225.501.501v22.669c0 .276-.225.501-.501.501-17.184.001-344.998.001-362.326.001z"/><path d="m115.791 335.476c13.537 0 24.551-11.014 24.551-24.551 0-4.142-3.358-7.5-7.5-7.5s-7.5 3.358-7.5 7.5c0 5.267-4.285 9.551-9.551 9.551-5.267 0-9.551-4.285-9.551-9.551 0-4.142-3.358-7.5-7.5-7.5s-7.5 3.358-7.5 7.5c0 13.537 11.013 24.551 24.551 24.551z"/><path d="m443.67 230.732h-76.094c-6.893 0-12.5 5.608-12.5 12.501v52.966c0 6.893 5.608 12.5 12.5 12.5h76.094c6.893 0 12.5-5.608 12.5-12.5v-52.966c0-6.893-5.607-12.501-12.5-12.501zm-2.5 62.967h-71.095v-47.968h71.095z"/><path d="m456.17 136.137c0-6.565-5.341-11.906-11.906-11.906h-4.167c-.118-.291-.238-.581-.361-.87l2.948-2.948c4.64-4.642 4.64-12.194-.001-16.837l-11.293-11.292c-4.652-4.653-12.184-4.654-16.837 0l-2.947 2.947c-.289-.123-.579-.243-.87-.361v-4.167c0-6.565-5.341-11.906-11.906-11.906h-15.971c-6.565 0-11.906 5.341-11.906 11.906v4.167c-.291.118-.581.238-.87.361l-2.947-2.947c-4.652-4.653-12.184-4.654-16.837 0l-11.293 11.293c-4.653 4.652-4.654 12.184 0 16.837l2.947 2.947c-.123.289-.244.579-.361.87h-4.167c-6.565 0-11.906 5.341-11.906 11.906v15.971c0 6.565 5.341 11.906 11.906 11.906h4.167c.118.291.238.581.361.87l-2.947 2.947c-4.653 4.652-4.654 12.184 0 16.837l11.293 11.293c2.249 2.249 5.239 3.487 8.418 3.487 3.18 0 6.17-1.238 8.419-3.487l2.947-2.947c.29.123.58.244.871.361v4.167c0 6.565 5.341 11.906 11.906 11.906h15.971c6.565 0 11.906-5.341 11.906-11.906v-4.167c.291-.118.581-.238.87-.361l2.947 2.947c4.652 4.653 12.184 4.654 16.837 0l11.294-11.293c4.64-4.642 4.64-12.194-.001-16.837l-2.947-2.947c.123-.29.243-.579.361-.87h4.167c6.565 0 11.906-5.341 11.906-11.906v-15.971zm-15 12.877h-6.422c-3.359 0-6.309 2.233-7.219 5.467-.806 2.863-1.958 5.639-3.423 8.251-1.644 2.931-1.138 6.596 1.238 8.972l4.545 4.545-6.917 6.917-4.546-4.545c-2.376-2.376-6.043-2.882-8.973-1.238-2.611 1.465-5.387 2.617-8.25 3.423-3.233.911-5.467 3.86-5.467 7.219v6.422h-9.783v-6.422c0-3.358-2.232-6.308-5.465-7.219-2.803-.791-5.569-1.919-8.252-3.424-2.93-1.644-6.597-1.139-8.973 1.238l-4.546 4.545-6.917-6.917 4.545-4.546c2.376-2.376 2.882-6.042 1.238-8.973-1.464-2.609-2.616-5.386-3.424-8.251-.911-3.233-3.86-5.466-7.219-5.466h-6.422v-9.783h6.422c3.359 0 6.308-2.233 7.219-5.466.808-2.866 1.959-5.642 3.424-8.251 1.644-2.931 1.138-6.597-1.238-8.973l-4.545-4.545 6.917-6.917 4.546 4.545c2.376 2.376 6.042 2.881 8.973 1.238 2.611-1.465 5.387-2.617 8.25-3.423 3.233-.911 5.467-3.86 5.467-7.219v-6.422h9.783v6.422c0 3.359 2.233 6.309 5.467 7.219 2.863.806 5.639 1.958 8.25 3.423 2.932 1.644 6.597 1.139 8.973-1.238l4.546-4.545 6.917 6.917-4.545 4.545c-2.376 2.375-2.882 6.042-1.238 8.972 1.465 2.612 2.617 5.388 3.423 8.251.911 3.233 3.86 5.467 7.219 5.467h6.422z"/><path d="m390.844 117.453c-14.706 0-26.67 11.964-26.67 26.669 0 14.706 11.964 26.67 26.67 26.67s26.669-11.964 26.669-26.67c.001-14.705-11.963-26.669-26.669-26.669zm0 38.34c-6.435 0-11.67-5.235-11.67-11.67s5.235-11.669 11.67-11.669 11.669 5.235 11.669 11.669-5.234 11.67-11.669 11.67z"/></g></svg>